<?xml version="1.0" encoding="UTF-8" ?>
<!DOCTYPE svg PUBLIC "-//W3C//DTD SVG 1.1//EN" "http://www.w3.org/Graphics/SVG/1.1/DTD/svg11.dtd">
<svg width="216pt" height="75pt" viewBox="0 0 216 75" version="1.1" xmlns="http://www.w3.org/2000/svg">
<g id="#000000ff">
<path fill="#000000" opacity="1.00" d=" M 55.93 30.83 C 58.69 25.81 63.98 21.59 69.99 22.02 C 75.36 21.67 80.20 24.92 83.21 29.14 C 82.17 29.82 81.13 30.47 80.09 31.14 C 77.08 26.98 71.59 24.00 66.49 26.07 C 62.95 27.45 58.49 30.76 60.06 35.12 C 62.02 32.54 63.71 29.21 67.11 28.33 C 71.26 26.76 76.43 28.93 78.18 33.00 C 77.19 33.52 76.20 34.04 75.21 34.55 C 73.53 31.96 70.73 31.19 67.78 31.37 C 66.41 33.02 64.42 34.56 64.45 36.92 C 63.91 40.22 66.74 43.19 69.89 43.60 C 72.32 43.84 73.81 41.64 75.31 40.13 C 76.28 40.77 77.26 41.42 78.23 42.07 C 76.60 45.06 73.49 47.27 69.96 46.93 C 64.44 47.15 60.66 42.26 57.94 38.09 C 56.72 35.94 54.42 33.42 55.93 30.83 Z" />
<path fill="#000000" opacity="1.00" d=" M 168.42 22.54 C 170.21 22.53 172.01 22.53 173.80 22.52 C 173.83 25.92 173.83 29.32 173.79 32.72 C 177.47 29.58 183.67 29.20 187.08 32.92 C 192.52 38.24 190.85 48.89 183.50 51.59 C 180.19 53.16 176.62 51.62 173.86 49.68 C 173.85 50.17 173.82 51.15 173.80 51.64 C 171.99 51.62 170.18 51.61 168.38 51.59 C 168.45 41.91 168.39 32.22 168.42 22.54 M 173.56 41.01 C 173.13 45.19 177.89 49.08 181.78 46.84 C 185.23 45.31 185.25 40.90 184.31 37.80 C 183.30 35.75 180.94 35.26 179.04 34.44 C 176.16 35.43 173.34 37.63 173.56 41.01 Z" />
<path fill="#000000" opacity="1.00" d=" M 35.75 23.12 C 37.69 23.10 39.62 23.09 41.55 23.08 C 45.20 32.58 48.77 42.11 52.48 51.57 C 50.59 51.60 48.70 51.63 46.80 51.65 C 46.01 49.59 45.21 47.53 44.42 45.47 C 40.59 45.47 36.77 45.45 32.94 45.54 C 32.18 47.59 31.40 49.63 30.59 51.67 C 28.73 51.64 26.87 51.60 25.01 51.57 C 28.72 42.13 32.25 32.63 35.75 23.12 M 38.62 30.70 C 37.36 33.83 36.17 36.98 35.00 40.13 C 37.47 40.14 39.93 40.15 42.40 40.15 C 41.19 36.98 39.97 33.81 38.62 30.70 Z" />
<path fill="#000000" opacity="1.00" d=" M 88.10 23.08 C 93.24 23.08 98.38 23.08 103.52 23.08 C 103.50 24.84 103.48 26.61 103.46 28.37 C 100.14 28.36 96.82 28.36 93.51 28.34 C 93.49 30.05 93.48 31.76 93.47 33.47 C 96.81 33.47 100.15 33.46 103.49 33.45 C 103.49 35.18 103.50 36.92 103.51 38.66 C 100.18 38.65 96.85 38.65 93.52 38.64 C 93.50 41.25 93.49 43.85 93.49 46.46 C 96.82 46.45 100.15 46.44 103.48 46.43 C 103.49 48.16 103.50 49.89 103.51 51.63 C 98.36 51.62 93.22 51.63 88.07 51.61 C 88.14 42.10 88.11 32.59 88.10 23.08 Z" />
<path fill="#000000" opacity="1.00" d=" M 125.16 23.08 C 127.01 23.08 128.86 23.08 130.71 23.08 C 130.68 30.87 130.69 38.66 130.70 46.45 C 133.33 46.45 135.95 46.44 138.58 46.43 C 138.59 48.16 138.60 49.90 138.61 51.63 C 134.12 51.62 129.64 51.62 125.16 51.62 C 125.17 42.11 125.17 32.60 125.16 23.08 Z" />
<path fill="#000000" opacity="1.00" d=" M 145.22 32.23 C 148.71 29.24 154.22 29.79 157.62 32.67 C 157.69 32.14 157.83 31.09 157.90 30.56 C 159.54 30.59 161.18 30.61 162.83 30.64 C 162.86 37.63 162.81 44.62 162.86 51.61 C 161.16 51.62 159.46 51.63 157.76 51.65 C 157.74 51.16 157.72 50.19 157.71 49.70 C 154.78 52.08 150.67 52.46 147.19 51.23 C 140.02 48.02 139.23 36.96 145.22 32.23 M 149.47 35.53 C 144.46 38.28 146.07 47.26 152.00 47.45 C 158.25 47.94 160.03 38.53 155.24 35.59 C 153.39 34.99 151.33 34.98 149.47 35.53 Z" />
<path fill="#000000" opacity="1.00" d=" M 108.65 38.65 C 111.92 38.66 115.20 38.65 118.47 38.64 C 118.49 40.27 118.51 41.90 118.53 43.54 C 115.22 43.53 111.91 43.52 108.60 43.52 C 108.62 41.90 108.64 40.27 108.65 38.65 Z" />
<path fill="#000000" opacity="1.00" d=" M 54.34 37.10 C 58.10 42.42 62.50 49.67 69.98 49.43 C 74.28 49.93 77.47 46.70 80.19 43.88 C 81.14 44.40 82.10 44.92 83.06 45.44 C 79.83 51.58 71.88 54.78 65.35 52.38 C 58.90 50.31 54.43 43.86 54.34 37.10 Z" />
</g>
</svg>
